# xmcd
#
# Track frame offsets: 
#        150
#        6225
#        40207
#        91334
#        105911
#        118551
#        154108
#        165148
#        237334
#        247370
#        281218
#
# Disc length: 4220 seconds
#
# Revision: 0
# Processed by: cddbd v1.5PL3 Copyright (c) Steve Scherf et al.
# Submitted via: ExactAudioCopy v0.95a5
#
DISCID=87107a0b
DTITLE=John Jordan - Only One
DYEAR=1999
DGENRE=Blues
TTITLE0=Coltrane Suite Prologue
TTITLE1=Coltrane Suite Prayer
TTITLE2=Coltrane Suite Dance
TTITLE3=Coltrane Suite Mother Blues
TTITLE4=Interlude: Mr. Smith
TTITLE5=City Driver
TTITLE6=Interlude: Mr. Jordan
TTITLE7=Only One
TTITLE8=Interlude: Mr. Duarte
TTITLE9=Gil Evans
TTITLE10=Free/ Amazing Grace
EXTD=
EXTT0=
EXTT1=
EXTT2=
EXTT3=
EXTT4=
EXTT5=
EXTT6=
EXTT7=
EXTT8=
EXTT9=
EXTT10=
PLAYORDER=
